<svg xmlns="http://www.w3.org/2000/svg" viewBox="0 0 1440 1320" width="1440" height="1320" role="img" aria-labelledby="title desc" font-family="'Segoe UI', Helvetica, Arial, sans-serif">
  <title id="title">Weyouze Anything — Architektur: Schichten (UI · Anwendungs-Core · Infrastruktur)</title>
  <desc id="desc">Geschichtetes Architekturdiagramm: reine UI (Renderer) getrennt vom UI-/Electron-/Node-freien Anwendungs-Core (src/application) mit seinen Ports, davon getrennt die Infrastruktur (src/main) mit Composition-Root, primären IPC-Adaptern, sekundären Adaptern, Registries und Services. Verbunden über Preload-Bridge und Shared Contracts.</desc>
  <defs>
    <marker id="ah" viewBox="0 0 8 6" markerWidth="9" markerHeight="7" refX="7" refY="3" orient="auto-start-reverse">
      <path d="M0,0 L8,3 L0,6 Z" fill="#5a6a78"/>
    </marker>
    <marker id="ahc" viewBox="0 0 8 6" markerWidth="9" markerHeight="7" refX="7" refY="3" orient="auto-start-reverse">
      <path d="M0,0 L8,3 L0,6 Z" fill="#c68a2e"/>
    </marker>
    <style>
      text{fill:#1b2733}
      .t-title{font-size:26px;font-weight:700}
      .t-sub{font-size:13px;fill:#5b6b7a}
      .zlabel{font-size:14px;font-weight:700;letter-spacing:1px}
      .btitle{font-size:13.5px;font-weight:700}
      .bsub{font-size:10.5px;fill:#5b6b7a}
      .chip{font-size:12px;font-weight:600;text-anchor:middle}
      .chipsub{font-size:9.5px;fill:#5b6b7a;text-anchor:middle}
      .note{font-size:11px;fill:#5b6b7a}
      .arrlbl{font-size:10px;fill:#47535f;font-weight:600;text-anchor:middle}
      .legend{font-size:12px;fill:#33414f}
      .tt-ui{fill:#1c4b82}.tt-hand{fill:#1f6b47}.tt-prov{fill:#4b2e8a}
      .tt-tool{fill:#922456}.tt-svc{fill:#333f78}.tt-ext{fill:#47535f}
      .tt-core{fill:#0b5b44}.tt-contract{fill:#8a5a12}
      rect.ui{fill:#e8f1fc;stroke:#2f6db3;stroke-width:1.3}
      rect.hand{fill:#e3f3e9;stroke:#3e9266;stroke-width:1.3}
      rect.prov{fill:#ede7f8;stroke:#7c4dd1;stroke-width:1.3}
      rect.tool{fill:#fbe4ee;stroke:#d5478a;stroke-width:1.3}
      rect.svc{fill:#e6eaf6;stroke:#5566b5;stroke-width:1.3}
      rect.ext{fill:#eef1f4;stroke:#8a97a6;stroke-width:1.3;stroke-dasharray:5 4}
      rect.core{fill:#cfe9df;stroke:#0e7a5b;stroke-width:2.4}
      rect.port{fill:#d7efe6;stroke:#0e7a5b;stroke-width:1.5}
      rect.contract{fill:#fcefd2;stroke:#c68a2e;stroke-width:1.3}
      rect.zone-ui{fill:#f3f8fd;stroke:#b8d4ee;stroke-width:1.5}
      rect.zone-core{fill:#effaf4;stroke:#8fd2b4;stroke-width:1.8}
      rect.zone-main{fill:#f3faf5;stroke:#badfc8;stroke-width:1.5}
      rect.subbox{fill:#ffffff;stroke:#cbd5e0;stroke-width:1;stroke-dasharray:4 3}
      rect.preload{fill:#dde5f0;stroke:#8a9bb5;stroke-width:1.5}
      rect.comp{fill:#fbf3e0;stroke:#c68a2e;stroke-width:1.4}
      rect.spine{fill:#fbf3e0;stroke:#c68a2e;stroke-width:1.6}
      .flow{stroke:#5a6a78;stroke-width:1.7;fill:none}
      .cflow{stroke:#c68a2e;stroke-width:1.5;fill:none;stroke-dasharray:5 4}
    </style>
  </defs>

  <rect x="0" y="0" width="1440" height="1320" fill="#f7f9fb"/>

  <text class="t-title" x="30" y="44">Weyouze Anything — Architekturüberblick</text>
  <text class="t-sub" x="31" y="70">Reine UI (Renderer) · UI-/Electron-/Node-freier Anwendungs-Core (src/application) mit Ports · Infrastruktur (src/main) · verbunden über Preload-Bridge &amp; Shared Contracts</text>

  <g>
    <rect class="ui"       x="600"  y="32" width="13" height="13" rx="2"/><text class="legend" x="618"  y="43">UI</text>
    <rect class="core"     x="655"  y="32" width="13" height="13" rx="2"/><text class="legend" x="673"  y="43">Core</text>
    <rect class="port"     x="720"  y="32" width="13" height="13" rx="2"/><text class="legend" x="738"  y="43">Port</text>
    <rect class="hand"     x="775"  y="32" width="13" height="13" rx="2"/><text class="legend" x="793"  y="43">Adapter</text>
    <rect class="contract" x="860"  y="32" width="13" height="13" rx="2"/><text class="legend" x="878"  y="43">Contracts</text>
    <rect class="svc"      x="965"  y="32" width="13" height="13" rx="2"/><text class="legend" x="983"  y="43">Infra</text>
    <rect class="ext"      x="1035" y="32" width="13" height="13" rx="2"/><text class="legend" x="1053" y="43">Extern</text>
  </g>

  <!-- ============ RENDERER / UI ZONE ============ -->
  <rect class="zone-ui" x="30" y="96" width="1180" height="196" rx="14"/>
  <text class="zlabel tt-ui" x="50" y="122">RENDERER-PROZESS — UI / PRÄSENTATIONSSCHICHT · src/renderer</text>

  <g>
    <rect class="ui" x="50"   y="146" width="218" height="42" rx="8"/>
    <text class="chip tt-ui" x="159" y="164">app.js</text><text class="chipsub" x="159" y="179">Bootstrap · Komposition</text>
    <rect class="ui" x="282"  y="146" width="218" height="42" rx="8"/>
    <text class="chip tt-ui" x="391" y="164">store</text><text class="chipsub" x="391" y="179">geteilter UI-State</text>
    <rect class="ui" x="514"  y="146" width="218" height="42" rx="8"/>
    <text class="chip tt-ui" x="623" y="164">ChatStream</text><text class="chipsub" x="623" y="179">Chat-Verlauf &amp; Streaming</text>
    <rect class="ui" x="746"  y="146" width="218" height="42" rx="8"/>
    <text class="chip tt-ui" x="855" y="164">FileTree</text><text class="chipsub" x="855" y="179">Datei-Explorer</text>
    <rect class="ui" x="978"  y="146" width="218" height="42" rx="8"/>
    <text class="chip tt-ui" x="1087" y="164">ChatModelPicker</text><text class="chipsub" x="1087" y="179">Modell-/Providerwahl</text>
  </g>
  <g>
    <rect class="ui" x="50"   y="200" width="218" height="42" rx="8"/>
    <text class="chip tt-ui" x="159" y="218">ChatHistoryDrawer</text><text class="chipsub" x="159" y="233">Sitzungsverlauf</text>
    <rect class="ui" x="282"  y="200" width="218" height="42" rx="8"/>
    <text class="chip tt-ui" x="391" y="218">SettingsModal</text><text class="chipsub" x="391" y="233">Einstellungen</text>
    <rect class="ui" x="514"  y="200" width="218" height="42" rx="8"/>
    <text class="chip tt-ui" x="623" y="218">RawLogModal</text><text class="chipsub" x="623" y="233">RAW-LLM-Protokoll</text>
    <rect class="ui" x="746"  y="200" width="218" height="42" rx="8"/>
    <text class="chip tt-ui" x="855" y="218">UpdateBanner</text><text class="chipsub" x="855" y="233">Update-Hinweis</text>
    <rect class="ui" x="978"  y="200" width="218" height="42" rx="8"/>
    <text class="chip tt-ui" x="1087" y="218">WhisperRecorder</text><text class="chipsub" x="1087" y="233">Spracheingabe</text>
  </g>
  <text class="note" x="50" y="270">Reine Präsentationsschicht: kennt nur <tspan font-style="italic">window.electronAPI</tspan> + Contracts — kein Provider-, Tool-, Electron- oder Node-Wissen. Weitere: ThemeManager, SidebarResizer, messageUtils, helpers.</text>

  <!-- ============ PRELOAD BRIDGE ============ -->
  <rect class="preload" x="30" y="304" width="1180" height="56" rx="10"/>
  <text x="620" y="329" text-anchor="middle" font-size="15" font-weight="700" fill="#1e2b3d">PRELOAD-BRIDGE — contextBridge: window.electronAPI · src/preload</text>
  <text x="620" y="348" text-anchor="middle" font-size="12" fill="#475569">einzige Brücke UI ⇄ Main · invoke (Request/Response) &amp; push (Events) über shared/ipc-channels.js</text>

  <line class="flow" x1="380" y1="292" x2="380" y2="303" marker-end="url(#ah)" marker-start="url(#ah)"/>
  <line class="flow" x1="860" y1="292" x2="860" y2="303" marker-end="url(#ah)" marker-start="url(#ah)"/>

  <!-- ============ MAIN / INFRASTRUCTURE ZONE ============ -->
  <rect class="zone-main" x="30" y="380" width="1180" height="808" rx="14"/>
  <text class="zlabel tt-hand" x="50" y="405">MAIN-PROZESS — INFRASTRUKTUR · src/main (Node/Electron)</text>

  <line class="flow" x1="380" y1="360" x2="380" y2="415" marker-end="url(#ah)" marker-start="url(#ah)"/>
  <line class="flow" x1="860" y1="360" x2="860" y2="415" marker-end="url(#ah)" marker-start="url(#ah)"/>
  <text class="arrlbl" x="620" y="374">IPC-Kanäle · DTOs / Events</text>

  <!-- Primary adapters: IPC handlers -->
  <rect class="subbox" x="46" y="418" width="1148" height="96" rx="10"/>
  <text class="bsub" x="58" y="438" font-weight="700" fill="#1f6b47">Primäre (treibende) Adapter — IPC-Handler · src/main/ipc</text>
  <g>
    <rect class="hand" x="58"  y="450" width="148" height="34" rx="7"/><text class="chip tt-hand" x="132"  y="472">chat</text>
    <rect class="hand" x="217" y="450" width="148" height="34" rx="7"/><text class="chip tt-hand" x="291"  y="472">chat-history</text>
    <rect class="hand" x="376" y="450" width="148" height="34" rx="7"/><text class="chip tt-hand" x="450"  y="472">fs</text>
    <rect class="hand" x="535" y="450" width="148" height="34" rx="7"/><text class="chip tt-hand" x="609"  y="472">dialog</text>
    <rect class="hand" x="694" y="450" width="148" height="34" rx="7"/><text class="chip tt-hand" x="768"  y="472">settings</text>
    <rect class="hand" x="853" y="450" width="148" height="34" rx="7"/><text class="chip tt-hand" x="927"  y="472">whisper</text>
    <rect class="hand" x="1012" y="450" width="148" height="34" rx="7"/><text class="chip tt-hand" x="1086" y="472">update</text>
  </g>
  <text class="note" x="58" y="504">Nur „chat" treibt den Anwendungs-Core (chat:send/explain/abort); die übrigen Handler rufen direkt ihre Services auf.</text>

  <!-- Composition root -->
  <rect class="comp" x="46" y="526" width="1148" height="40" rx="10"/>
  <text x="620" y="551" text-anchor="middle" font-size="12" font-weight="700" fill="#8a5a12">Composition-Root · src/main/composition/create-chat-application.js — verdrahtet Ports ↔ Adapter und baut die Chat-Engine</text>

  <line class="flow" x1="132" y1="484" x2="132" y2="525" marker-end="url(#ah)"/>
  <text class="arrlbl" x="185" y="512">chat:send</text>

  <!-- ============ APPLICATION CORE ZONE (nested, highlighted) ============ -->
  <rect class="zone-core" x="46" y="578" width="1148" height="236" rx="12"/>
  <text class="zlabel tt-core" x="62" y="602">ANWENDUNGS-CORE — src/application · UI-/Electron-/Node-frei (per Test erzwungen)</text>

  <!-- core modules -->
  <rect class="core" x="62" y="616" width="470" height="182" rx="12"/>
  <text x="297" y="642" text-anchor="middle" font-size="15" font-weight="700" class="tt-core">Chat-Orchestrierung &amp; Tool-Loop</text>
  <text class="note" x="78" y="668" fill="#204b3d">• chat-engine.js — Runden-/Tool-Schleife, System-Prompt,</text>
  <text class="note" x="90" y="684" fill="#204b3d">Usage-Aggregation, RAW-Protokoll, Abbruch</text>
  <text class="note" x="78" y="704" fill="#204b3d">• chat-history-trim.js — Kontextfenster (Trim)</text>
  <text class="note" x="78" y="724" fill="#204b3d">• API: send() · explain() · abort()</text>
  <rect x="78" y="738" width="438" height="46" rx="8" fill="#eaf7f0" stroke="#0e7a5b" stroke-width="1" stroke-dasharray="4 3"/>
  <text x="90" y="757" font-size="10.5" fill="#356b58">Hängt nur von src/application/ports und src/shared ab —</text>
  <text x="90" y="773" font-size="10.5" fill="#356b58">niemals von Adaptern, Providern, Electron oder dem Dateisystem.</text>

  <!-- ports panel -->
  <text class="bsub" x="556" y="638" font-weight="700" fill="#0b5b44">PORTS — src/application/ports (Interfaces = Verträge des Cores)</text>
  <g>
    <rect class="port" x="556" y="650" width="122" height="46" rx="7"/>
    <text class="chip tt-core" x="617" y="670">LlmPort</text><text class="chipsub" x="617" y="685">Ziel · Validierung · Stream</text>
    <rect class="port" x="690" y="650" width="122" height="46" rx="7"/>
    <text class="chip tt-core" x="751" y="670">ToolPort</text><text class="chipsub" x="751" y="685">Tools · Prompt · execute</text>
    <rect class="port" x="824" y="650" width="122" height="46" rx="7"/>
    <text class="chip tt-core" x="885" y="670">ChatPrefsPort</text><text class="chipsub" x="885" y="685">UI-Prefs lesen</text>
    <rect class="port" x="958" y="650" width="112" height="46" rx="7"/>
    <text class="chip tt-core" x="1014" y="670">WorkspacePath</text><text class="chipsub" x="1014" y="685">Pfad-Auflösung</text>
    <rect class="port" x="1082" y="650" width="100" height="46" rx="7"/>
    <text class="chip tt-core" x="1132" y="670">RawExchange</text><text class="chipsub" x="1132" y="685">RAW-Recorder</text>
  </g>
  <rect x="556" y="708" width="626" height="90" rx="8" fill="#f4fbf8" stroke="#0e7a5b" stroke-width="1" stroke-dasharray="4 3"/>
  <text x="568" y="728" font-size="11" font-weight="700" fill="#0b5b44">Roadmap · Etappe 2–4 ✓</text>
  <text x="568" y="747" font-size="10.5" fill="#356b58">Etappe 2: UI-/Electron-freier Core in src/application extrahiert.</text>
  <text x="568" y="765" font-size="10.5" fill="#356b58">Etappe 3: Provider &amp; Tools über Ports angebunden.</text>
  <text x="568" y="783" font-size="10.5" fill="#356b58">Etappe 4: Infrastruktur als austauschbare Adapter des Cores.</text>

  <!-- ============ SECONDARY ADAPTERS ============ -->
  <rect class="subbox" x="46" y="826" width="1148" height="84" rx="10"/>
  <text class="bsub" x="58" y="846" font-weight="700" fill="#1f6b47">Sekundäre (getriebene) Adapter — src/main/adapters (implementieren die Ports)</text>
  <g>
    <rect class="hand" x="58"  y="858" width="218" height="40" rx="7"/><text class="chip tt-hand" x="167"  y="882">provider-llm-adapter</text>
    <rect class="hand" x="286" y="858" width="218" height="40" rx="7"/><text class="chip tt-hand" x="395"  y="882">workspace-tool-adapter</text>
    <rect class="hand" x="514" y="858" width="220" height="40" rx="7"/><text class="chip tt-hand" x="624"  y="882">chat-preferences-adapter</text>
    <rect class="hand" x="744" y="858" width="210" height="40" rx="7"/><text class="chip tt-hand" x="849"  y="882">workspace-path-adapter</text>
    <rect class="hand" x="964" y="858" width="196" height="40" rx="7"/><text class="chip tt-hand" x="1062" y="882">raw-exchange-adapter</text>
  </g>

  <line class="flow" x1="620" y1="798" x2="620" y2="825" marker-end="url(#ah)" marker-start="url(#ah)"/>
  <text class="arrlbl" x="690" y="817">Port ⇄ Adapter</text>

  <!-- ============ INFRASTRUCTURE: registries + services ============ -->
  <rect class="subbox" x="46" y="922" width="1148" height="248" rx="10"/>
  <text class="bsub" x="58" y="942" font-weight="700" fill="#333f78">Registries &amp; Services — austauschbare Infrastruktur · src/main</text>

  <!-- provider registry -->
  <rect class="prov" x="58" y="954" width="330" height="150" rx="10" fill="#f6f2fd"/>
  <text class="btitle tt-prov" x="70" y="976">Provider-Registry</text>
  <text class="bsub" x="70" y="992">src/main/providers</text>
  <g>
    <rect class="prov" x="70"  y="1004" width="145" height="28" rx="6"/><text class="chip tt-prov" x="142" y="1023">openai</text>
    <rect class="prov" x="229" y="1004" width="145" height="28" rx="6"/><text class="chip tt-prov" x="301" y="1023">anthropic</text>
    <rect class="prov" x="70"  y="1038" width="145" height="28" rx="6"/><text class="chip tt-prov" x="142" y="1057">google</text>
    <rect class="prov" x="229" y="1038" width="145" height="28" rx="6"/><text class="chip tt-prov" x="301" y="1057">ollama</text>
    <rect class="prov" x="70"  y="1072" width="145" height="28" rx="6"/><text class="chip tt-prov" x="142" y="1091">mlx-lm</text>
    <rect class="prov" x="229" y="1072" width="145" height="28" rx="6"/><text class="chip tt-prov" x="301" y="1091">stream-helpers</text>
  </g>

  <!-- tool registry -->
  <rect class="tool" x="404" y="954" width="300" height="150" rx="10" fill="#fdf1f6"/>
  <text class="btitle tt-tool" x="416" y="976">Tool-Registry</text>
  <text class="bsub" x="416" y="992">src/main/tools</text>
  <g>
    <rect class="tool" x="416" y="1004" width="130" height="28" rx="6"/><text class="chip tt-tool" x="481"  y="1023">list_directory</text>
    <rect class="tool" x="560" y="1004" width="130" height="28" rx="6"/><text class="chip tt-tool" x="625"  y="1023">read_file_text</text>
    <rect class="tool" x="416" y="1038" width="130" height="28" rx="6"/><text class="chip tt-tool" x="481"  y="1057">write_file_text*</text>
    <rect class="tool" x="560" y="1038" width="130" height="28" rx="6"/><text class="chip tt-tool" x="625"  y="1057">debug_wait</text>
  </g>
  <text class="note" x="416" y="1090">* benötigt aktivierten</text>
  <text class="note" x="416" y="1102">Schreibzugriff (Einstellungen)</text>

  <!-- services -->
  <rect class="svc" x="720" y="954" width="462" height="150" rx="10" fill="#eef1f8"/>
  <text class="btitle tt-svc" x="732" y="976">Services &amp; Laufzeit</text>
  <text class="bsub" x="732" y="992">src/main/services (+ workspace-state, permissions, window, llm-raw-log)</text>
  <g>
    <rect class="svc" x="732" y="1004" width="140" height="28" rx="6"/><text class="chip tt-svc" x="802"  y="1023">storage-service</text>
    <rect class="svc" x="884" y="1004" width="140" height="28" rx="6"/><text class="chip tt-svc" x="954"  y="1023">fs-service</text>
    <rect class="svc" x="1036" y="1004" width="134" height="28" rx="6"/><text class="chip tt-svc" x="1103" y="1023">whisper-service</text>
    <rect class="svc" x="732" y="1038" width="140" height="28" rx="6"/><text class="chip tt-svc" x="802"  y="1057">update-service</text>
    <rect class="svc" x="884" y="1038" width="140" height="28" rx="6"/><text class="chip tt-svc" x="954"  y="1057">workspace-state</text>
    <rect class="svc" x="1036" y="1038" width="134" height="28" rx="6"/><text class="chip tt-svc" x="1103" y="1057">permissions</text>
    <rect class="svc" x="732" y="1072" width="140" height="28" rx="6"/><text class="chip tt-svc" x="802"  y="1091">llm-raw-log</text>
    <rect class="svc" x="884" y="1072" width="140" height="28" rx="6"/><text class="chip tt-svc" x="954"  y="1091">window</text>
    <rect class="svc" x="1036" y="1072" width="134" height="28" rx="6"/><text class="chip tt-svc" x="1103" y="1091">presentation</text>
  </g>

  <!-- adapter -> infra guide arrows -->
  <line class="flow-d flow" x1="167" y1="898" x2="167" y2="953" marker-end="url(#ah)" stroke-dasharray="5 4"/>
  <line class="flow-d flow" x1="395" y1="898" x2="480" y2="953" marker-end="url(#ah)" stroke-dasharray="5 4"/>
  <line class="flow-d flow" x1="624" y1="898" x2="800" y2="953" marker-end="url(#ah)" stroke-dasharray="5 4"/>

  <!-- ============ EXTERNAL SYSTEMS ============ -->
  <text class="zlabel tt-ext" x="30" y="1218">EXTERNE SYSTEME</text>
  <g>
    <rect class="ext" x="220" y="1198" width="176" height="80" rx="9"/>
    <text class="chip tt-ext" x="308" y="1231">LLM-APIs</text><text class="chipsub" x="308" y="1247">OpenAI · Anthropic</text><text class="chipsub" x="308" y="1260">Google · Ollama · MLX</text>
    <rect class="ext" x="408" y="1198" width="176" height="80" rx="9"/>
    <text class="chip tt-ext" x="496" y="1231">Whisper-API</text><text class="chipsub" x="496" y="1247">OpenAI Speech-to-Text</text>
    <rect class="ext" x="596" y="1198" width="176" height="80" rx="9"/>
    <text class="chip tt-ext" x="684" y="1231">App-Storage</text><text class="chipsub" x="684" y="1247">safeStorage (verschlüsselt)</text><text class="chipsub" x="684" y="1260">JSON auf Disk</text>
    <rect class="ext" x="784" y="1198" width="176" height="80" rx="9"/>
    <text class="chip tt-ext" x="872" y="1231">GitHub</text><text class="chipsub" x="872" y="1247">Releases-API</text><text class="chipsub" x="872" y="1260">(Update-Check)</text>
    <rect class="ext" x="972" y="1198" width="176" height="80" rx="9"/>
    <text class="chip tt-ext" x="1060" y="1231">Dateisystem</text><text class="chipsub" x="1060" y="1247">geöffneter</text><text class="chipsub" x="1060" y="1260">Workspace-Ordner</text>
  </g>

  <!-- ============ SHARED CONTRACTS SPINE ============ -->
  <rect class="spine" x="1224" y="96" width="186" height="1092" rx="14"/>
  <text x="1317" y="124" text-anchor="middle" class="zlabel tt-contract">SHARED · src/shared</text>
  <text x="1317" y="143" text-anchor="middle" font-size="11" fill="#8a5a12">von UI, Core &amp; Infra genutzt</text>
  <g>
    <rect class="contract" x="1240" y="160" width="154" height="56" rx="8"/>
    <text class="btitle tt-contract" x="1317" y="182" text-anchor="middle">contracts/</text>
    <text class="chipsub" x="1317" y="199" fill="#8a5a12">DTOs &amp; Events</text><text class="chipsub" x="1317" y="211" fill="#8a5a12">chat · usage · llm-target · raw-log</text>
    <rect class="contract" x="1240" y="224" width="154" height="46" rx="8"/>
    <text class="btitle tt-contract" x="1317" y="246" text-anchor="middle">Enums · Validatoren</text>
    <text class="chipsub" x="1317" y="262" fill="#8a5a12">Phasen · Fehlercodes · settings</text>
    <rect class="contract" x="1240" y="278" width="154" height="44" rx="8"/>
    <text class="btitle tt-contract" x="1317" y="300" text-anchor="middle">ipc-channels.js</text>
    <text class="chipsub" x="1317" y="316" fill="#8a5a12">Request- &amp; Push-Kanäle</text>
    <rect class="contract" x="1240" y="330" width="154" height="38" rx="8"/>
    <text class="btitle tt-contract" x="1317" y="354" text-anchor="middle">limits.js</text>
    <rect class="contract" x="1240" y="376" width="154" height="46" rx="8"/>
    <text class="btitle tt-contract" x="1317" y="398" text-anchor="middle">runtime/</text>
    <text class="chipsub" x="1317" y="414" fill="#8a5a12">abort · fetch-errors</text>
    <rect class="contract" x="1240" y="430" width="154" height="46" rx="8"/>
    <text class="btitle tt-contract" x="1317" y="452" text-anchor="middle">presentation/</text>
    <text class="chipsub" x="1317" y="468" fill="#8a5a12">tool-display</text>
  </g>
  <rect x="1240" y="490" width="154" height="150" rx="8" fill="#fff7e6" stroke="#c68a2e" stroke-width="1" stroke-dasharray="4 3"/>
  <text x="1317" y="512" text-anchor="middle" font-size="11" font-weight="700" fill="#8a5a12">Single Source of Truth</text>
  <text x="1248" y="534" font-size="10.5" fill="#8a5a12">Versioniert (CONTRACT_VERSION)</text>
  <text x="1248" y="554" font-size="10.5" fill="#8a5a12">Main → require (CommonJS)</text>
  <text x="1248" y="572" font-size="10.5" fill="#8a5a12">Renderer → ESM-Bundle</text>
  <text x="1248" y="588" font-size="10.5" fill="#8a5a12">(esbuild-generiert)</text>
  <text x="1248" y="612" font-size="10.5" font-weight="700" fill="#8a5a12">Contracts ≠ Ports:</text>
  <text x="1248" y="628" font-size="10.5" fill="#8a5a12">Ports liegen im Core</text>
  <text x="1248" y="644" font-size="9.5" fill="#8a5a12">(src/application/ports).</text>

  <line class="cflow" x1="1224" y1="120" x2="1197" y2="120" marker-end="url(#ahc)" marker-start="url(#ahc)"/>
  <text class="arrlbl" x="1118" y="115" fill="#8a5a12">Vertrag → Renderer</text>
  <line class="cflow" x1="1224" y1="405" x2="1197" y2="405" marker-end="url(#ahc)" marker-start="url(#ahc)"/>
  <text class="arrlbl" x="1108" y="400" fill="#8a5a12">Vertrag → Main &amp; Core</text>

  <!-- ============ FOOTER / STAMP ============ -->
  <text x="30" y="1305" font-size="11" fill="#8a97a6">docs/architecture-layers.svg</text>
  <text x="1410" y="1305" text-anchor="end" font-size="11" fill="#8a97a6">Aktualisiert 2026-07-12 · Ports &amp; Adapter umgesetzt (Roadmap-Etappe 3–4)</text>
</svg>
