<svg xmlns="http://www.w3.org/2000/svg" width="1600" height="980" viewBox="0 0 1600 980" role="img" aria-labelledby="title description">
  <title id="title">Funktionale Architektur von Weyouze Anything</title>
  <desc id="description">Statisches Architekturdiagramm der neun funktionalen Module und ihrer gerichteten Beziehungen.</desc>

  <defs>
    <marker id="arrow" viewBox="0 0 10 10" refX="9" refY="5" markerWidth="7" markerHeight="7" orient="auto-start-reverse">
      <path d="M 0 0 L 10 5 L 0 10 z" fill="#5C5C5C"/>
    </marker>
    <style>
      .canvas { fill: #F9F9F9; }
      .module { fill: #FFFFFF; stroke: #D8D8D8; stroke-width: 2; rx: 6; }
      .module--primary { fill: #F3F9FB; stroke: #00759E; stroke-width: 3; rx: 6; }
      .eyebrow {
        fill: #00759E;
        font-family: Inter, -apple-system, BlinkMacSystemFont, "Segoe UI", sans-serif;
        font-size: 14px;
        font-weight: 600;
        letter-spacing: 1.2px;
      }
      .heading {
        fill: #000000;
        font-family: Inter, -apple-system, BlinkMacSystemFont, "Segoe UI", sans-serif;
        font-size: 24px;
        font-weight: 600;
      }
      .description {
        fill: #5C5C5C;
        font-family: Inter, -apple-system, BlinkMacSystemFont, "Segoe UI", sans-serif;
        font-size: 16px;
        font-weight: 400;
      }
      .page-title {
        fill: #000000;
        font-family: Inter, -apple-system, BlinkMacSystemFont, "Segoe UI", sans-serif;
        font-size: 34px;
        font-weight: 600;
      }
      .page-subtitle {
        fill: #5C5C5C;
        font-family: Inter, -apple-system, BlinkMacSystemFont, "Segoe UI", sans-serif;
        font-size: 17px;
        font-weight: 400;
      }
      .flow {
        fill: none;
        stroke: #5C5C5C;
        stroke-width: 2;
        marker-end: url(#arrow);
      }
      .flow--return {
        fill: none;
        stroke: #00759E;
        stroke-width: 2;
        marker-end: url(#arrow);
      }
      .flow-label {
        fill: #5C5C5C;
        font-family: ui-monospace, "SF Mono", Menlo, Consolas, monospace;
        font-size: 13px;
        font-weight: 400;
      }
      .flow-label--accent { fill: #00759E; }
      .label-bg { fill: #F9F9F9; }
    </style>
  </defs>

  <rect class="canvas" width="1600" height="980"/>

  <text class="page-title" x="64" y="58">Funktionale Architektur</text>
  <text class="page-subtitle" x="64" y="88">Weyouze Anything &#183; Module und ihre direkten Beziehungen</text>

  <!-- Relationships are drawn before modules so boxes remain visually clear. -->
  <path class="flow" d="M 390 248 C 445 248, 445 220, 500 220"/>
  <path class="flow--return" d="M 500 254 C 445 254, 445 282, 390 282"/>
  <rect class="label-bg" x="412" y="205" width="66" height="20"/>
  <text class="flow-label" x="418" y="220">Anfrage</text>
  <rect class="label-bg" x="405" y="286" width="79" height="20"/>
  <text class="flow-label flow-label--accent" x="411" y="301">Streaming</text>

  <path class="flow" d="M 830 220 C 890 220, 890 176, 950 176"/>
  <rect class="label-bg" x="853" y="184" width="79" height="20"/>
  <text class="flow-label" x="859" y="199">Chat-Runde</text>

  <path class="flow" d="M 665 300 L 665 390"/>
  <rect class="label-bg" x="676" y="331" width="73" height="20"/>
  <text class="flow-label" x="682" y="346">ausf&#252;hren</text>

  <path class="flow" d="M 665 520 L 665 610"/>
  <rect class="label-bg" x="676" y="551" width="90" height="20"/>
  <text class="flow-label" x="682" y="566">lesen / schreiben</text>

  <path class="flow" d="M 950 266 C 880 300, 870 618, 830 665"/>
  <rect class="label-bg" x="841" y="448" width="97" height="20"/>
  <text class="flow-label" x="847" y="463">Konfiguration</text>

  <path class="flow" d="M 390 335 C 430 370, 445 441, 500 451"/>
  <rect class="label-bg" x="398" y="381" width="89" height="20"/>
  <text class="flow-label" x="404" y="396">Dateizugriff</text>

  <path class="flow" d="M 390 372 C 430 480, 420 660, 500 676"/>
  <rect class="label-bg" x="394" y="536" width="73" height="20"/>
  <text class="flow-label" x="400" y="551">Explorer</text>

  <path class="flow" d="M 830 676 C 888 676, 890 436, 950 436"/>
  <rect class="label-bg" x="846" y="552" width="79" height="20"/>
  <text class="flow-label" x="852" y="567">Pfadpr&#252;fung</text>

  <path class="flow" d="M 390 402 C 430 556, 424 776, 500 787"/>
  <rect class="label-bg" x="392" y="657" width="72" height="20"/>
  <text class="flow-label" x="398" y="672">Historie</text>

  <path class="flow" d="M 830 266 C 915 325, 870 785, 950 795"/>
  <rect class="label-bg" x="851" y="701" width="71" height="20"/>
  <text class="flow-label" x="857" y="716">Modelle</text>

  <path class="flow" d="M 225 460 C 225 714, 480 882, 950 882"/>
  <rect class="label-bg" x="456" y="850" width="91" height="20"/>
  <text class="flow-label" x="462" y="865">Audioeingabe</text>

  <path class="flow" d="M 390 430 C 610 956, 1160 914, 1160 880"/>
  <rect class="label-bg" x="725" y="916" width="90" height="20"/>
  <text class="flow-label" x="731" y="931">Release-Check</text>

  <!-- Interaction -->
  <rect class="module module--primary" x="60" y="180" width="330" height="280"/>
  <text class="eyebrow" x="90" y="218">INTERAKTION</text>
  <text class="heading" x="90" y="255">Benutzeroberfl&#228;che</text>
  <text class="description" x="90" y="292">
    <tspan x="90" dy="0">Chat und RAW-Protokoll</tspan>
    <tspan x="90" dy="28">Workspace-Explorer</tspan>
    <tspan x="90" dy="28">Einstellungen und Verlauf</tspan>
    <tspan x="90" dy="28">Spracheingabe und Updates</tspan>
  </text>

  <!-- Core conversation flow -->
  <rect class="module module--primary" x="500" y="140" width="330" height="160"/>
  <text class="eyebrow" x="530" y="178">KERNMODUL</text>
  <text class="heading" x="530" y="215">Chat-Orchestrierung</text>
  <text class="description" x="530" y="249">
    <tspan x="530" dy="0">Tool-Loop und Streaming</tspan>
    <tspan x="530" dy="26">Kontext- und Verlaufspflege</tspan>
  </text>

  <rect class="module" x="950" y="120" width="330" height="146"/>
  <text class="eyebrow" x="980" y="158">KI-ZUGANG</text>
  <text class="heading" x="980" y="195">LLM-Provider</text>
  <text class="description" x="980" y="229">OpenAI &#183; Anthropic &#183; Google</text>
  <text class="description" x="980" y="253">Ollama &#183; MLX-LM</text>

  <!-- Workspace flow -->
  <rect class="module" x="500" y="390" width="330" height="130"/>
  <text class="eyebrow" x="530" y="428">ARBEITSBEREICH</text>
  <text class="heading" x="530" y="465">Workspace-Tools</text>
  <text class="description" x="530" y="499">Auflisten &#183; Lesen &#183; Schreiben</text>

  <rect class="module" x="500" y="610" width="330" height="130"/>
  <text class="eyebrow" x="530" y="648">DATEIEN</text>
  <text class="heading" x="530" y="685">Dateisystem-Zugriff</text>
  <text class="description" x="530" y="719">Workspace-sichere Dateioperationen</text>

  <rect class="module" x="950" y="370" width="330" height="130"/>
  <text class="eyebrow" x="980" y="408">KONTEXT</text>
  <text class="heading" x="980" y="445">Workspace-Zustand</text>
  <text class="description" x="980" y="479">Aktiver Projektordner</text>

  <!-- Supporting functions -->
  <rect class="module" x="500" y="770" width="330" height="120"/>
  <text class="eyebrow" x="530" y="808">DATEN</text>
  <text class="heading" x="530" y="845">Persistenz</text>
  <text class="description" x="530" y="875">Keys &#183; Konfiguration &#183; Historie</text>

  <rect class="module" x="950" y="640" width="330" height="120"/>
  <text class="eyebrow" x="980" y="678">SPRACHE</text>
  <text class="heading" x="980" y="715">Spracheingabe</text>
  <text class="description" x="980" y="745">Whisper-Transkription</text>

  <rect class="module" x="950" y="800" width="330" height="120"/>
  <text class="eyebrow" x="980" y="838">VERSION</text>
  <text class="heading" x="980" y="875">Update-Notifier</text>
  <text class="description" x="980" y="905">Release-Pr&#252;fung und Hinweis</text>
</svg>
